<?xml version="1.0" standalone="no"?>
<!DOCTYPE svg PUBLIC "-//W3C//DTD SVG 20010904//EN"
 "http://www.w3.org/TR/2001/REC-SVG-20010904/DTD/svg10.dtd">
<svg version="1.0" xmlns="http://www.w3.org/2000/svg"
 width="360.000000pt" height="76.000000pt" viewBox="0 0 360.000000 76.000000"
 preserveAspectRatio="xMidYMid meet">
<metadata>
Created by potrace 1.15, written by Peter Selinger 2001-2017
</metadata>
<g transform="translate(0.000000,76.000000) scale(0.100000,-0.100000)"
fill="#000000" stroke="none">
<path d="M3229 603 l-166 -3 2 -263 3 -262 76 -3 77 -3 -3 103 -3 103 100 1
100 2 3 61 3 61 -100 0 c-91 0 -100 2 -106 20 -3 11 -3 30 0 41 7 21 11 22
120 15 l114 -6 -6 57 c-6 76 -9 83 -30 81 -10 -1 -93 -4 -184 -5z"/>
<path d="M127 503 l-6 -98 81 -167 82 -168 66 0 66 0 79 157 80 157 3 108 4
108 -45 0 c-24 0 -59 -3 -76 -6 l-31 -6 0 -91 c0 -84 -3 -97 -37 -169 -20 -43
-40 -78 -44 -78 -5 0 -24 34 -44 75 l-36 74 7 101 7 100 -75 0 -75 0 -6 -97z"/>
<path d="M2170 598 c-1 -2 -2 -121 -4 -265 l-3 -263 78 0 79 0 -7 90 -6 90 30
0 c38 0 48 -12 83 -102 l28 -73 76 -3 c58 -2 76 0 76 11 0 7 -18 50 -40 96
-22 45 -40 86 -40 90 0 5 15 25 34 45 84 88 43 244 -72 276 -31 8 -311 15
-312 8z m243 -129 c29 -16 37 -28 37 -61 0 -37 -34 -58 -92 -58 l-48 0 0 65 0
65 41 0 c22 0 50 -5 62 -11z"/>
<path d="M662 574 c-15 -10 -22 -25 -22 -49 0 -57 67 -85 118 -49 50 35 17
114 -48 114 -14 0 -36 -7 -48 -16z"/>
<path d="M1187 564 c-4 -4 -7 -38 -7 -75 0 -56 -3 -68 -17 -71 -14 -2 -18 -15
-19 -55 -2 -46 0 -52 19 -55 21 -3 22 -7 19 -94 -3 -84 -2 -93 20 -119 31 -36
100 -45 162 -21 38 15 44 21 50 54 10 63 10 63 -36 56 -52 -9 -68 10 -68 78
l0 48 50 0 50 0 0 60 0 60 -50 0 -50 0 0 59 0 58 -37 7 c-21 3 -47 9 -58 12
-11 3 -24 2 -28 -2z"/>
<path d="M932 419 c-58 -29 -94 -85 -100 -154 -11 -136 109 -232 246 -196 37
10 42 15 41 39 -1 15 -4 38 -8 52 -6 23 -11 25 -54 22 -39 -3 -50 0 -72 22
-32 32 -32 60 0 92 22 21 33 25 72 22 l46 -3 13 48 12 49 -33 14 c-49 20 -113
17 -163 -7z"/>
<path d="M1545 421 c-48 -22 -69 -44 -90 -94 -29 -70 -10 -174 41 -219 85 -75
230 -58 291 33 24 36 28 53 28 109 0 56 -4 73 -28 109 -50 75 -155 102 -242
62z"/>
<path d="M1907 427 c-48 -8 -57 -12 -51 -26 4 -9 10 -87 12 -173 l4 -158 67 0
67 0 -4 89 c-6 113 3 131 63 131 l45 0 2 55 c0 30 1 61 2 68 2 20 -40 19 -83
-2 l-40 -21 -3 22 c-4 27 -9 28 -81 15z"/>
<path d="M2733 421 c-26 -12 -52 -35 -70 -62 -24 -36 -28 -53 -28 -109 0 -55
4 -73 27 -107 48 -73 151 -103 235 -68 50 21 72 42 94 90 33 73 16 180 -37
227 -55 49 -150 61 -221 29z"/>
<path d="M638 250 l3 -180 64 0 65 0 0 113 c0 61 3 142 7 180 l6 67 -74 0 -74
0 3 -180z"/>
</g>
</svg>
